<svg width="138" height="18" viewBox="0 0 138 18" fill="none" xmlns="http://www.w3.org/2000/svg">
<path d="M0.899414 17.0327V1.32758H4.22949V14.2827H10.5996V17.0327H0.899414ZM18.0547 7.12836C17.36 7.12836 16.8158 7.35036 16.4219 7.79437C16.028 8.23122 15.8024 8.85427 15.7451 9.66351H20.3428C20.3285 8.85427 20.1172 8.23122 19.709 7.79437C19.3008 7.35036 18.7493 7.12836 18.0547 7.12836ZM18.5166 17.2475C16.583 17.2475 15.0719 16.714 13.9834 15.6469C12.8949 14.5799 12.3506 13.0688 12.3506 11.1137C12.3506 9.10134 12.8519 7.5473 13.8545 6.4516C14.8643 5.34873 16.2572 4.7973 18.0332 4.7973C19.7305 4.7973 21.0518 5.2807 21.9971 6.2475C22.9424 7.21429 23.415 8.54991 23.415 10.2543V11.8442H15.6699C15.7057 12.7752 15.9814 13.5021 16.4971 14.0248C17.0127 14.5476 17.736 14.809 18.667 14.809C19.3903 14.809 20.0742 14.7338 20.7188 14.5834C21.3633 14.433 22.0365 14.1931 22.7383 13.8637V16.3989C22.1654 16.6853 21.5531 16.8966 20.9014 17.0327C20.2497 17.1759 19.4548 17.2475 18.5166 17.2475ZM33.7061 17.0327L33.0723 15.3998H32.9863C32.4349 16.0945 31.8656 16.5779 31.2783 16.85C30.6982 17.115 29.9391 17.2475 29.001 17.2475C27.848 17.2475 26.9385 16.9181 26.2725 16.2592C25.6136 15.6004 25.2842 14.6622 25.2842 13.4448C25.2842 12.17 25.7282 11.2319 26.6162 10.6303C27.5114 10.0216 28.8577 9.685 30.6553 9.62054L32.7393 9.55609V9.02972C32.7393 7.81228 32.1162 7.20355 30.8701 7.20355C29.9105 7.20355 28.7826 7.49359 27.4863 8.07367L26.4014 5.86078C27.7835 5.13747 29.3161 4.77582 30.999 4.77582C32.6104 4.77582 33.8457 5.12673 34.7051 5.82855C35.5645 6.53038 35.9941 7.59743 35.9941 9.02972V17.0327H33.7061ZM32.7393 11.4682L31.4717 11.5112C30.5192 11.5398 29.8102 11.7117 29.3447 12.0268C28.8792 12.3419 28.6465 12.8217 28.6465 13.4662C28.6465 14.3901 29.1764 14.852 30.2363 14.852C30.9954 14.852 31.6006 14.6336 32.0518 14.1967C32.5101 13.7599 32.7393 13.1798 32.7393 12.4565V11.4682ZM46.0811 4.7973C46.5251 4.7973 46.8939 4.82953 47.1875 4.89398L46.9404 7.96625C46.6755 7.89463 46.3532 7.85883 45.9736 7.85883C44.9281 7.85883 44.1117 8.12738 43.5244 8.66449C42.9443 9.2016 42.6543 9.95355 42.6543 10.9203V17.0327H39.3779V5.02289H41.8594L42.3428 7.04242H42.5039C42.8763 6.36924 43.3776 5.82855 44.0078 5.42035C44.6452 5.00498 45.3363 4.7973 46.0811 4.7973ZM60.4541 17.0327H57.1777V10.018C57.1777 9.15147 57.0238 8.50336 56.7158 8.07367C56.4079 7.63682 55.9173 7.4184 55.2441 7.4184C54.3275 7.4184 53.665 7.72634 53.2568 8.34222C52.8486 8.95095 52.6445 9.96429 52.6445 11.3823V17.0327H49.3682V5.02289H51.8711L52.3115 6.55902H52.4941C52.8594 5.97894 53.3607 5.54209 53.998 5.24847C54.6426 4.94769 55.373 4.7973 56.1895 4.7973C57.5859 4.7973 58.6458 5.17686 59.3691 5.93597C60.0924 6.68793 60.4541 7.77647 60.4541 9.2016V17.0327ZM75.1064 0.951599C75.751 0.951599 76.3275 1.05186 76.8359 1.25238C77.3516 1.44574 77.7884 1.70713 78.1465 2.03656C78.5117 2.36599 78.7982 2.74554 79.0059 3.17523C79.2207 3.59776 79.346 4.03819 79.3818 4.49652L77.6523 4.85101C77.6309 4.85817 77.6058 4.86176 77.5771 4.86176C77.5557 4.86176 77.5342 4.86176 77.5127 4.86176C77.3838 4.86176 77.2692 4.82953 77.1689 4.76508C77.0758 4.69346 76.9971 4.58604 76.9326 4.44281C76.8682 4.24945 76.7822 4.06683 76.6748 3.89496C76.5745 3.72308 76.4528 3.57269 76.3096 3.44379C76.1663 3.31488 75.9945 3.21104 75.7939 3.13226C75.5934 3.05349 75.3643 3.0141 75.1064 3.0141C74.7985 3.0141 74.5228 3.06781 74.2793 3.17523C74.043 3.28265 73.8389 3.42588 73.667 3.60492C73.5023 3.78396 73.3734 3.99522 73.2803 4.23871C73.1943 4.47504 73.1514 4.72569 73.1514 4.99066C73.1514 5.20551 73.1729 5.41677 73.2158 5.62445C73.266 5.83213 73.3411 6.03982 73.4414 6.2475C73.5488 6.44802 73.6849 6.65928 73.8496 6.88129C74.0143 7.09613 74.2184 7.3253 74.4619 7.56879L78.6836 11.9623C78.9271 11.4968 79.1204 11.0099 79.2637 10.5014C79.4141 9.98578 79.5107 9.46299 79.5537 8.93304C79.568 8.76833 79.6217 8.63584 79.7148 8.53558C79.8151 8.42816 79.9476 8.37445 80.1123 8.37445H81.8203C81.8132 9.34125 81.6735 10.2651 81.4014 11.1459C81.1292 12.0268 80.7425 12.836 80.2412 13.5737L83.5713 17.0327H80.9072C80.7712 17.0327 80.6494 17.0255 80.542 17.0112C80.4346 16.9968 80.3307 16.9718 80.2305 16.936C80.1374 16.893 80.0479 16.8393 79.9619 16.7748C79.876 16.7032 79.7829 16.6173 79.6826 16.517L78.5869 15.3784C77.8851 15.9513 77.1009 16.3989 76.2344 16.7211C75.375 17.0434 74.444 17.2045 73.4414 17.2045C72.8255 17.2045 72.224 17.1007 71.6367 16.893C71.0495 16.6853 70.5231 16.3845 70.0576 15.9907C69.5993 15.5896 69.2269 15.1098 68.9404 14.5512C68.6611 13.9926 68.5215 13.3588 68.5215 12.6498C68.5215 12.1629 68.6003 11.6974 68.7578 11.2534C68.9225 10.8093 69.1481 10.3976 69.4346 10.018C69.721 9.63129 70.0576 9.28396 70.4443 8.97601C70.8382 8.66807 71.2715 8.40668 71.7441 8.19183C71.3574 7.6404 71.0745 7.10329 70.8955 6.58051C70.7165 6.05056 70.627 5.52777 70.627 5.01215C70.627 4.46071 70.7272 3.93793 70.9277 3.44379C71.1283 2.94965 71.4183 2.51996 71.7979 2.15472C72.1846 1.78233 72.6572 1.48871 73.2158 1.27386C73.7744 1.05902 74.4046 0.951599 75.1064 0.951599ZM71.2822 12.435C71.2822 12.836 71.3503 13.1977 71.4863 13.52C71.6296 13.8422 71.8229 14.1179 72.0664 14.3471C72.3099 14.5691 72.5892 14.741 72.9043 14.8627C73.2266 14.9845 73.5667 15.0453 73.9248 15.0453C74.5693 15.0453 75.1566 14.9451 75.6865 14.7446C76.2165 14.5369 76.7035 14.254 77.1475 13.8959L72.9688 9.6098C72.3815 9.98936 71.9518 10.419 71.6797 10.8989C71.4147 11.3715 71.2822 11.8836 71.2822 12.435ZM100.265 17.0327H91.2197V1.32758H100.265V4.05609H94.5498V7.50433H99.8672V10.2328H94.5498V14.2827H100.265V17.0327ZM110.921 17.0327L110.287 15.3998H110.201C109.65 16.0945 109.08 16.5779 108.493 16.85C107.913 17.115 107.154 17.2475 106.216 17.2475C105.063 17.2475 104.153 16.9181 103.487 16.2592C102.828 15.6004 102.499 14.6622 102.499 13.4448C102.499 12.17 102.943 11.2319 103.831 10.6303C104.726 10.0216 106.073 9.685 107.87 9.62054L109.954 9.55609V9.02972C109.954 7.81228 109.331 7.20355 108.085 7.20355C107.125 7.20355 105.997 7.49359 104.701 8.07367L103.616 5.86078C104.998 5.13747 106.531 4.77582 108.214 4.77582C109.825 4.77582 111.061 5.12673 111.92 5.82855C112.779 6.53038 113.209 7.59743 113.209 9.02972V17.0327H110.921ZM109.954 11.4682L108.687 11.5112C107.734 11.5398 107.025 11.7117 106.56 12.0268C106.094 12.3419 105.861 12.8217 105.861 13.4662C105.861 14.3901 106.391 14.852 107.451 14.852C108.21 14.852 108.815 14.6336 109.267 14.1967C109.725 13.7599 109.954 13.1798 109.954 12.4565V11.4682ZM123.296 4.7973C123.74 4.7973 124.109 4.82953 124.402 4.89398L124.155 7.96625C123.89 7.89463 123.568 7.85883 123.188 7.85883C122.143 7.85883 121.326 8.12738 120.739 8.66449C120.159 9.2016 119.869 9.95355 119.869 10.9203V17.0327H116.593V5.02289H119.074L119.558 7.04242H119.719C120.091 6.36924 120.592 5.82855 121.223 5.42035C121.86 5.00498 122.551 4.7973 123.296 4.7973ZM137.669 17.0327H134.393V10.018C134.393 9.15147 134.239 8.50336 133.931 8.07367C133.623 7.63682 133.132 7.4184 132.459 7.4184C131.542 7.4184 130.88 7.72634 130.472 8.34222C130.063 8.95095 129.859 9.96429 129.859 11.3823V17.0327H126.583V5.02289H129.086L129.526 6.55902H129.709C130.074 5.97894 130.576 5.54209 131.213 5.24847C131.857 4.94769 132.588 4.7973 133.404 4.7973C134.801 4.7973 135.861 5.17686 136.584 5.93597C137.307 6.68793 137.669 7.77647 137.669 9.2016V17.0327Z" fill="url(#paint0_linear_8031_1281)"/>
<defs>
<linearGradient id="paint0_linear_8031_1281" x1="10.4747" y1="0.0326762" x2="155.99" y2="6.55713" gradientUnits="userSpaceOnUse">
<stop stop-color="#2362FB"/>
<stop offset="1" stop-color="#34FB23"/>
</linearGradient>
</defs>
</svg>
